<svg width="24" height="24" viewBox="0 0 24 24" fill="none" xmlns="http://www.w3.org/2000/svg">
<path d="M5.57143 20.4384C3.85714 18.7282 3 16.5976 3 14.0468C3 12.2611 3.74486 10.286 5.23457 8.12152C6.72429 5.957 8.97943 3.58316 12 1C15.0214 3.58399 17.2766 5.95825 18.7654 8.12277C20.2551 10.2865 21 12.2611 21 14.0468C21 16.5976 20.1433 18.7277 18.4299 20.4371C16.7164 22.1465 14.5731 23.0008 12 23C9.42686 22.9992 7.28357 22.1449 5.57014 20.4371M12.279 20.13C12.4701 20.1093 12.6201 20.0471 12.729 19.9435C12.8361 19.8382 12.8897 19.7093 12.8897 19.5567C12.8897 19.3777 12.8263 19.2401 12.6994 19.1439C12.5726 19.0477 12.417 19.01 12.2327 19.0307C11.3541 19.0929 10.3727 18.8276 9.28843 18.2349C8.20329 17.643 7.53214 16.6523 7.275 15.2629C7.23214 15.0673 7.161 14.921 7.06157 14.824C6.96129 14.727 6.83486 14.6785 6.68229 14.6785C6.51343 14.6785 6.36986 14.7394 6.25157 14.8613C6.13329 14.9832 6.09771 15.1655 6.14486 15.4084C6.47657 17.1344 7.30071 18.3696 8.61729 19.1141C9.93386 19.8585 11.1544 20.1972 12.279 20.13Z" stroke="#0B4282"/>
</svg>
