<svg width="144" height="140" viewBox="0 0 144 140" fill="none" xmlns="http://www.w3.org/2000/svg">
<path fill-rule="evenodd" clip-rule="evenodd" d="M136.771 37.908C135.396 38.4014 133.909 38.4941 132.484 38.1755C131.058 37.8568 129.752 37.1398 128.718 36.108L123.04 30.42L79.8708 73.5891C79.1544 74.306 78.3038 74.8747 77.3675 75.2627C76.4312 75.6507 75.4277 75.8504 74.4142 75.8504C73.4008 75.8504 72.3972 75.6507 71.461 75.2627C70.5247 74.8747 69.6741 74.306 68.9577 73.5891L52.4902 57.1217L13.2605 96.3514C12.5486 97.0879 11.697 97.6752 10.7557 98.079C9.81432 98.4828 8.80196 98.6952 7.77766 98.7036C6.75336 98.712 5.73764 98.5163 4.78977 98.128C3.8419 97.7397 2.98086 97.1665 2.25689 96.4418C1.53292 95.7172 0.960518 94.8556 0.573084 93.9073C0.18565 92.9591 -0.00905698 91.9432 0.000323504 90.9189C0.00970399 89.8946 0.222984 88.8825 0.62772 87.9415C1.03246 87.0005 1.62054 86.1496 2.35766 85.4383L47.0182 40.7469C47.7346 40.03 48.5853 39.4613 49.5215 39.0733C50.4578 38.6853 51.4613 38.4856 52.4748 38.4856C53.4883 38.4856 54.4918 38.6853 55.4281 39.0733C56.3643 39.4613 57.215 40.03 57.9314 40.7469L74.4091 57.2246L112.127 19.5069L106.449 13.8291C105.415 12.7965 104.696 11.4914 104.375 10.0659C104.054 8.64031 104.144 7.15287 104.636 5.7767C105.127 4.40052 105.999 3.19223 107.151 2.29246C108.302 1.3927 109.685 0.838466 111.139 0.694286C120.53 -0.231429 125.93 -0.231429 134.971 0.694286C136.736 0.876726 138.384 1.66167 139.637 2.91691C140.89 4.17216 141.673 5.821 141.853 7.58571C142.789 16.6166 142.778 22.0269 141.853 31.4074C141.708 32.8608 141.154 34.2433 140.254 35.3941C139.355 36.5449 138.147 37.4166 136.771 37.908ZM120.078 53.4189C121.243 52.2887 122.735 51.5551 124.342 51.3224C125.949 51.0897 127.588 51.3698 129.026 52.1229L139.024 57.3686C140.318 58.0494 141.391 59.0838 142.12 60.3512C142.848 61.6186 143.201 63.067 143.138 64.5274L140.299 132.29C140.217 134.28 139.368 136.161 137.93 137.54C136.492 138.918 134.577 139.687 132.585 139.685H112.302C111.62 139.685 110.966 139.414 110.483 138.932C110.001 138.45 109.73 137.796 109.73 137.114V64.5377C109.73 64.1924 109.798 63.8506 109.933 63.5325C110.067 63.2144 110.264 62.9266 110.512 62.6863L120.078 53.4189ZM96.8731 137.114C96.8731 137.796 96.6022 138.45 96.1199 138.932C95.6377 139.414 94.9837 139.685 94.3017 139.685H55.7302C55.0483 139.685 54.3942 139.414 53.912 138.932C53.4297 138.45 53.1588 137.796 53.1588 137.114V77.3126C53.1588 77.1069 53.3131 76.9423 53.5188 76.9629C55.1954 77.0451 56.8411 77.6829 58.1988 78.8657L75.1188 93.7183C75.604 94.1453 76.2322 94.3739 76.8783 94.3587C77.5245 94.3434 78.1412 94.0854 78.6057 93.636L92.512 80.1411C92.875 79.7893 93.3337 79.5522 93.8308 79.4596C94.3278 79.367 94.8411 79.423 95.3065 79.6206C95.7719 79.8181 96.1687 80.1485 96.4474 80.5704C96.726 80.9923 96.8741 81.487 96.8731 81.9926V137.114ZM35.8891 91.2086L3.90052 123.876C2.48477 125.317 1.69076 127.256 1.68909 129.276V131.971C1.68909 136.229 5.14509 139.685 9.40338 139.685H37.7302C38.4122 139.685 39.0663 139.414 39.5485 138.932C40.0307 138.45 40.3017 137.796 40.3017 137.114V93.0086C40.3026 92.4968 40.1509 91.9964 39.8658 91.5713C39.5808 91.1463 39.1754 90.816 38.7015 90.6227C38.2276 90.4294 37.7069 90.3819 37.2059 90.4863C36.7048 90.5906 36.2464 90.8421 35.8891 91.2086Z" fill="#0B4282"/>
<circle cx="111.529" cy="107.238" r="30.5" fill="#0B4282" stroke="white" stroke-width="3"/>
<path d="M121.485 96.9985C120.841 95.9259 119.905 95.0417 118.777 94.4404C117.65 93.8392 116.374 93.5436 115.085 93.5852H107.974C106.088 93.5852 104.279 94.3044 102.945 95.5847C101.612 96.8649 100.862 98.6013 100.862 100.412C100.862 102.222 101.612 103.959 102.945 105.239C104.279 106.519 106.088 107.239 107.974 107.239H115.085C116.971 107.239 118.779 107.958 120.113 109.238C121.447 110.518 122.196 112.255 122.196 114.065C122.196 115.876 121.447 117.612 120.113 118.892C118.779 120.173 116.971 120.892 115.085 120.892H107.974C106.685 120.934 105.408 120.638 104.281 120.037C103.153 119.435 102.218 118.551 101.574 117.479M111.529 90.1719V124.305" stroke="white" stroke-width="5" stroke-linecap="round" stroke-linejoin="round"/>
</svg>
