<svg width="152" height="144" viewBox="0 0 152 144" fill="none" xmlns="http://www.w3.org/2000/svg">
<path d="M72.3809 76.32L90.4762 94.32C91.8032 95.64 92.4666 97.32 92.4666 99.36C92.4666 101.4 91.8032 103.08 90.4762 104.4C89.1492 105.72 87.4603 106.38 85.4095 106.38C83.3587 106.38 81.6698 105.72 80.3428 104.4L60.0762 84.24C59.3524 83.52 58.8095 82.7112 58.4476 81.8136C58.0857 80.916 57.9048 79.9848 57.9048 79.02V50.4C57.9048 48.36 58.5996 46.6512 59.9893 45.2736C61.379 43.896 63.0969 43.2048 65.1428 43.2C67.1888 43.1952 68.9091 43.8864 70.3036 45.2736C71.6981 46.6608 72.3906 48.3696 72.3809 50.4V76.32ZM115.81 36H101.333C99.2825 36 97.5647 35.3112 96.1798 33.9336C94.7949 32.556 94.1 30.8448 94.0952 28.8C94.0904 26.7552 94.7853 25.0464 96.1798 23.6736C97.5743 22.3008 99.2922 21.6096 101.333 21.6H115.81V7.20002C115.81 5.16002 116.504 3.45122 117.894 2.07362C119.284 0.696025 121.002 0.00482483 123.048 2.48276e-05C125.094 -0.00477517 126.814 0.686425 128.208 2.07362C129.603 3.46082 130.295 5.16962 130.286 7.20002V21.6H144.762C146.813 21.6 148.533 22.2912 149.923 23.6736C151.312 25.056 152.005 26.7648 152 28.8C151.995 30.8352 151.3 32.5464 149.915 33.9336C148.531 35.3208 146.813 36.0096 144.762 36H130.286V50.4C130.286 52.44 129.591 54.1512 128.201 55.5336C126.811 56.916 125.094 57.6048 123.048 57.6C121.002 57.5952 119.284 56.904 117.894 55.5264C116.504 54.1488 115.81 52.44 115.81 50.4V36ZM39.7227 138.96C31.8187 135.6 24.9111 130.98 19 125.1C13.0889 119.22 8.44444 112.349 5.06667 104.486C1.68889 96.624 0 88.1952 0 79.2C0 70.2048 1.68889 61.776 5.06667 53.9136C8.44444 46.0512 13.0889 39.18 19 33.3C24.9111 27.42 31.8187 22.8 39.7227 19.44C47.6267 16.08 56.1001 14.4 65.1428 14.4C66.4698 14.4 67.7075 14.4312 68.856 14.4936C70.0044 14.556 71.2397 14.7048 72.5619 14.94C74.6127 14.94 76.3329 15.6312 77.7227 17.0136C79.1124 18.396 79.8048 20.1048 79.8 22.14C79.7952 24.1752 79.1003 25.8864 77.7154 27.2736C76.3305 28.6608 74.6127 29.3496 72.5619 29.34C71.2349 29.34 69.9972 29.2488 68.8487 29.0664C67.7003 28.884 66.465 28.7952 65.1428 28.8C50.9079 28.8 38.9048 33.66 29.1333 43.38C19.3619 53.1 14.4762 65.04 14.4762 79.2C14.4762 93.36 19.3619 105.3 29.1333 115.02C38.9048 124.74 50.9079 129.6 65.1428 129.6C79.3778 129.6 91.3809 124.74 101.152 115.02C110.924 105.3 115.81 93.36 115.81 79.2C115.81 77.16 116.504 75.4512 117.894 74.0736C119.284 72.696 121.002 72.0048 123.048 72C125.094 71.9952 126.814 72.6864 128.208 74.0736C129.603 75.4608 130.295 77.1696 130.286 79.2C130.286 88.2 128.597 96.6312 125.219 104.494C121.841 112.356 117.197 119.225 111.286 125.1C105.375 130.975 98.467 135.595 90.563 138.96C82.659 142.325 74.1856 144.005 65.1428 144C56.1001 143.995 47.6267 142.315 39.7227 138.96Z" fill="#0B4282"/>
</svg>
