<svg width="24" height="24" viewBox="0 0 24 24" fill="none" xmlns="http://www.w3.org/2000/svg">
<path d="M18.1401 16.7005C17.2301 18.2105 16.0801 17.7305 15.0001 17.0905C13.9201 16.4505 12.9001 15.6805 12.2501 16.5905C11.5401 17.3705 12.0901 18.6205 12.3701 19.7205C12.6501 20.8305 12.6701 21.7905 10.9001 22.0005C9.50008 21.8105 9.58008 20.6505 9.81008 19.4205C10.0401 18.1905 10.4001 16.8905 9.50008 16.4305C8.78008 15.9505 8.28008 16.7805 7.65008 17.6005C7.00008 18.4105 6.26008 19.2005 5.04008 18.6205C3.94008 17.7105 4.36008 17.1805 4.94008 16.5005C5.52008 15.8205 6.27008 14.9105 5.84008 13.3105C5.66008 12.6605 4.76008 12.8105 3.87008 12.7905C3.00008 12.7705 2.12008 12.5905 2.03008 11.2905C1.96008 10.5005 2.55008 10.1805 3.16008 9.93046C3.78008 9.68046 4.41008 9.50046 4.42008 8.87046C4.45008 8.26046 4.04008 7.83046 3.78008 7.38046C3.52008 6.93046 3.41008 6.46046 4.03008 5.76046C5.08008 4.90046 5.92008 5.63046 6.76008 6.42046C7.60008 7.21046 8.43008 8.04046 9.46008 7.39046C10.2801 6.85046 9.53008 5.90046 8.95008 4.97046C8.37008 4.04046 7.96008 3.15046 9.46008 2.74046C10.7601 2.38046 11.2601 3.27046 11.7101 4.30046C12.1701 5.33046 12.5701 6.50046 13.6701 6.71046C15.2401 7.00046 16.3801 5.16046 17.4701 3.70046C18.5601 2.24046 19.6301 1.15046 21.0001 2.95046C22.5001 4.84046 21.0701 5.72046 19.4001 6.50046C17.7301 7.23046 15.8101 7.87046 16.2701 9.28046C16.5401 10.1005 17.4201 9.65046 18.3501 9.34046C19.2701 9.03046 20.2601 8.86046 20.7401 10.2705C21.2501 11.7605 20.0401 12.1005 18.6801 12.2405C17.3201 12.3805 15.8001 12.3205 15.7001 13.0005C15.5901 13.7105 16.5001 14.0005 17.2901 14.4205C18.0801 14.8505 18.7501 15.4205 18.1401 16.7005ZM20.5001 19.0005C19.5501 19.0005 19.0601 18.2605 19.0601 17.5005C19.0601 16.7405 19.5401 16.0005 20.5001 16.0005C21.5001 16.0005 22.0001 16.7405 22.0001 17.5005C22.0001 18.2605 21.5001 19.0005 20.5001 19.0005Z" stroke="#0B4282"/>
</svg>
