<svg width="132" height="146" viewBox="0 0 132 146" fill="none" xmlns="http://www.w3.org/2000/svg">
<path d="M127 116.308C127 123.652 124.091 130.696 118.913 135.889C113.734 141.082 106.711 144 99.3877 144H44.1631C36.8398 144 29.8166 141.082 24.6382 135.889C19.4599 130.696 16.5508 123.652 16.5508 116.308V99.6923H127V116.308ZM110.433 0C111.897 0 113.302 0.583515 114.338 1.62218C115.373 2.66084 115.955 4.06957 115.955 5.53846C115.955 7.00735 115.373 8.41608 114.338 9.45475C113.302 10.4934 111.897 11.0769 110.433 11.0769H104.91V44.8615C111.147 46.1383 116.752 49.537 120.778 54.4824C124.803 59.4278 127.001 65.6161 127 72V88.6154H16.5508V72C16.5495 65.6161 18.7475 59.4278 22.7729 54.4824C26.7983 49.537 32.4038 46.1383 38.6406 44.8615V11.0769H33.1182C31.6535 11.0769 30.2489 10.4934 29.2132 9.45475C28.1775 8.41608 27.5957 7.00735 27.5957 5.53846C27.5957 4.06957 28.1775 2.66084 29.2132 1.62218C30.2489 0.583515 31.6535 0 33.1182 0H110.433ZM49.6855 44.3077H66.2529V33.2308C64.7883 33.2308 63.3836 32.6473 62.348 31.6086C61.3123 30.5699 60.7305 29.1612 60.7305 27.6923C60.7305 26.2234 61.3123 24.8147 62.348 23.776C63.3836 22.7374 64.7883 22.1538 66.2529 22.1538H77.2979C78.7625 22.1538 80.1672 22.7374 81.2028 23.776C82.2385 24.8147 82.8203 26.2234 82.8203 27.6923C82.8203 29.1612 82.2385 30.5699 81.2028 31.6086C80.1672 32.6473 78.7625 33.2308 77.2979 33.2308V44.3077H93.8652V11.0769H49.6855V44.3077Z" fill="#0B4282"/>
<g filter="url(#filter0_d_63_120)">
<path d="M126.41 12.5996L5 134.361" stroke="#0B4282" stroke-width="10" stroke-linecap="round"/>
</g>
<defs>
<filter id="filter0_d_63_120" x="0" y="7.59961" width="131.41" height="137.762" filterUnits="userSpaceOnUse" color-interpolation-filters="sRGB">
<feFlood flood-opacity="0" result="BackgroundImageFix"/>
<feColorMatrix in="SourceAlpha" type="matrix" values="0 0 0 0 0 0 0 0 0 0 0 0 0 0 0 0 0 0 127 0" result="hardAlpha"/>
<feOffset dy="6"/>
<feComposite in2="hardAlpha" operator="out"/>
<feColorMatrix type="matrix" values="0 0 0 0 1 0 0 0 0 1 0 0 0 0 1 0 0 0 1 0"/>
<feBlend mode="normal" in2="BackgroundImageFix" result="effect1_dropShadow_63_120"/>
<feBlend mode="normal" in="SourceGraphic" in2="effect1_dropShadow_63_120" result="shape"/>
</filter>
</defs>
</svg>
