<svg width="20" height="20" viewBox="0 0 20 20" fill="none" xmlns="http://www.w3.org/2000/svg">
<path d="M10.3914 9.18333C9.92125 12.887 7.51975 13.5458 7.51975 16.1208C7.51975 17.7103 8.88428 19 10.5 19C12.1157 19 13.4793 17.7094 13.4793 16.1208C13.4793 13.5458 11.0778 12.887 10.6077 9.18333C10.5929 9.07263 10.4061 9.07263 10.3914 9.18333ZM4.87167 1.08303C4.40149 4.78667 2 5.44459 2 8.02049C2 9.60905 3.36361 10.8997 4.97932 10.8997C6.59504 10.8997 7.95865 9.60905 7.95865 8.02049C7.95865 5.44549 5.55715 4.78667 5.08698 1.08303C5.07318 0.972324 4.88547 0.972324 4.87167 1.08303ZM15.913 1.08303C15.4428 4.78667 13.0413 5.44549 13.0413 8.02049C13.0413 9.60905 14.405 10.8997 16.0207 10.8997C17.6364 10.8997 19 9.60905 19 8.02049C19 5.44549 16.5985 4.78667 16.1283 1.08303C16.1136 0.972324 15.9268 0.972324 15.913 1.08303Z" stroke="#0B4282"/>
</svg>
