<?xml version="1.0" encoding="UTF-8"?>
<svg id="_圖層_1" data-name="圖層 1" xmlns="http://www.w3.org/2000/svg" viewBox="0 0 166.15 148.28">
  <defs>
    <style>
      .cls-1 {
        fill: #0b4282;
      }
    </style>
  </defs>
  <path class="cls-1" d="M5.15,24.52l-.26,28.47c-.3,33.15,21.9,60.12,51.67,73.7l7.18-4.42c1.4-.86,3.03-.69,3.62.04.87,1.1.57,3.25-.71,3.99l-9.92,5.75C24.4,118.36-.1,90.2,0,54.55L.1,20.54C19.32,18.53,36.61,12.18,52.23,1.34c2.93-2.04,5.88-1.61,8.75.34,15.79,10.73,33.03,16.95,52.18,19.09l.06,32.9c.03,15.09-8.25,41.63-13.16,39.74-1.25-.48-2.06-2.21-1.09-4.17,5.62-11.26,8.98-23.2,9.31-35.96l-.14-28.49c-18.95-2.04-35.7-8.87-51.65-20.01C41.16,15.2,25,22.49,5.15,24.52Z"/>
  <path class="cls-1" d="M60.3,83.04c.01,2.95-1.3,4.63-3.15,5.04-2.21.5-4.36-.82-4.45-3.72l-.52-16.29-18.21-.79c-1.46-.06-1.44-4.63-.47-5.92l18.77-.63.68-18.87c.08-2.33,5.72-2.86,6.35-.83,1.92,6.18.33,12.83.81,19.88l17.24.04c2.52,0,2.98,2.99,2.4,4.93-.52,1.72-2.27,2.77-4.85,2.67l-14.66-.56.07,15.06Z"/>
  <path class="cls-1" d="M154.88,107.86c0,2.27-3.32,8.64-9.54,9.37-3.73-.81-8.69-4.89-9.31-8.97,2.38-5.7,3.1-7.78,9.47-9.64,5.76,1.01,9.39,5.66,9.38,9.24Z"/>
  <path class="cls-1" d="M106.18,147.64c-.04.77-3.14.87-3.54.14-.36-.67-.2-1.75-.62-3.67-.57-2.6-6.2-5.06-8.26-3.35-1.47,1.22-2.04,1.93-3.49,2.07-1.1.1-2.34-.02-2.41-1.7-.07-1.54.92-2.21,2.18-4.01,1.48-2.11-1.18-8.03-3.6-8.52-1.99-.4-3.22-.23-3.8-.7s-.51-2.74.02-3.31,2.24-.1,3.57-.61c7.42-2.86.15-12.55,2.21-14.3,2.57-2.18,3.91,3.25,9.61,1.55,3-.9,4.18-3.01,4.28-6.52.02-.81,3.13-.98,3.6-.28.45.66.2,2.27.53,3.84.52,2.43,6.35,5.06,8.16,3.44,1.46-1.31,2.09-2.25,3.55-2.44,1.03-.13,2.4.29,2.48,1.96.07,1.44-1,2.22-2.24,4.02-1.54,2.25,1.14,8.08,3.63,8.7,1.9.47,2.98.31,3.52.75.58.47.68,2.66.09,3.12-.55.44-1.77.33-3.53.8-2.86.77-5.51,6.95-3.29,9.17,1.51,1.51,2.11,2.68,1.66,4.23-.28.97-3.26.82-3.95.01-2.6-3.02-4.63-1.53-6.51-1.04-3.75.97-3.72,3.55-3.86,6.64Z"/>
  <circle class="cls-1" cx="104.5" cy="131.15" r="2.73"/>
  <path class="cls-1" d="M151.56,81.49c-5.82,1.85-2.71,8.25-6.44,6.75-2.38-.96-.16-5.42-5.48-6.89-3.79-1.05-7.07,3.6-8.36,1.31-.72-1.27-.45-2.82.86-4.34,1.87-2.17-.48-7.52-3.29-7.95-1.2-.18-2.55-.11-2.96-.32-.59-.32-.57-2-.22-3.35,2.07-.55,4.75-.78,5.76-2.87,2.63-5.38-2.02-8.6-.89-10.56,1.61-2.77,5.8,2.82,10.32,1,1.92-.77,2.86-2.71,2.99-5.37.1-1.91,3.56-1.75,3.63-.51.18,3.44.74,4.9,3.51,6.21,5.19,2.47,6.78-3.23,9.23-1.86,2.1,1.17-5.63,10.09,2.18,13.18,1.17.46,2.64.35,3.2.75.81.57.71,3.51-.27,3.67-3.07.5-4.87,1.07-5.95,3.67-1.95,4.69,3.21,7.84.83,9.12-2.87,1.54-4.45-2.96-8.65-1.62Z"/>
  <path class="cls-1" d="M139.77,64.44c.32-.44,2.11-.38,2.65-.24.5.13,1.2.86.7,1.79-.58,1.08-1.37.61-1.85.73-1.04.27-2.6-.76-1.5-2.28Z"/>
  <circle class="cls-1" cx="145.57" cy="72.71" r="1.35"/>
</svg>