<?xml version="1.0" encoding="UTF-8"?>
<svg id="_圖層_1" data-name="圖層 1" xmlns="http://www.w3.org/2000/svg" viewBox="0 0 172.08 131.85">
  <defs>
    <style>
      .cls-1 {
        fill: #0b4282;
      }
    </style>
  </defs>
  <rect class="cls-1" x="83.33" y="11.8" width="5.43" height="172.08" transform="translate(-11.84 183.84) rotate(-89.98)"/>
  <path class="cls-1" d="M140.89,40.38c-5.18,8.24-3.82,18.01-7.09,17.62-3.94-.46-2.12-12.94-9.97-20.86-6.32-6.38-16.76-4.32-17.37-7.56-.95-4.99,11.15-2.71,17.35-8.76C131.35,13.48,129.54.09,133.8,0c3.8-.08,1.73,8.7,7.12,17.62,6.33,10.46,23.38,6.85,19.53,12.58-1.72,2.56-13.75.93-19.56,10.18Z"/>
  <path class="cls-1" d="M71.2,49.58c-16.79,1.48-13.04,18.91-17.69,18.52-3.14-.26-.46-17.7-17.09-19.02-1.27-.1-2.27-1.72-2.19-2.51.38-3.45,16.03-.56,17.07-16.89.13-2.01,1.85-5.12,4.45-4.65,1.42,5.03,1.5,11.15,5.41,15.13,4.78,4.86,12.94,3.08,13.04,6.78.04,1.61-.79,2.44-3.01,2.64Z"/>
  <path class="cls-1" d="M105.4,72.83c-10.69,1.09-8.64,13.09-11.98,12.86-3.11-.21-.86-11.96-11.51-12.84-1.31-.11-2.22-1.11-2.32-1.91-.18-1.43,1.04-2.48,2.74-2.59,10.45-.64,8.05-12.25,11.35-12.63,4.01-.46.09,11.63,11.98,13.03,1.42.17,2.29,1.05,2.19,2.2-.09,1.07-.91,1.73-2.45,1.89Z"/>
  <circle class="cls-1" cx="154.55" cy="119.7" r="5.68"/>
  <circle class="cls-1" cx="66.16" cy="126.87" r="4.97"/>
  <circle class="cls-1" cx="107.27" cy="126.84" r="4.92"/>
  <circle class="cls-1" cx="14.41" cy="114.06" r="4.69"/>
  <circle class="cls-1" cx="86.69" cy="113.24" r="4.19"/>
  <circle class="cls-1" cx="126.62" cy="113.18" r="4.12"/>
  <circle class="cls-1" cx="47.01" cy="113.05" r="4"/>
  <circle class="cls-1" cx="26.34" cy="127.25" r="3.25"/>
</svg>