<?xml version="1.0" encoding="UTF-8"?>
<svg id="_圖層_1" data-name="圖層 1" xmlns="http://www.w3.org/2000/svg" viewBox="0 0 146.42 164.15">
  <defs>
    <style>
      .cls-1 {
        fill: #0b4282;
      }
    </style>
  </defs>
  <path class="cls-1" d="M134.87,75.97c-.25,8.71-5.36,23.25-10.55,22.69-5.84-.63,5.83-11.68,5.59-22.48l-.46-21.01c-5.75,4-6.94,10.01-10.56,8-.81-.45-1.56-2.39-.69-3.46l10.2-12.7c1.24-1.54,2.31-2.69,4.11-2.55,1.57.12,2.51,1.58,3.71,3.05l9.78,12.06c.72.89.4,2.55,0,3.18-2.53,4-6.03-4.67-10.54-6.58l-.58,19.79Z"/>
  <path class="cls-1" d="M17.17,71.31c-.28,16.16-7.78,29.69-11.69,27.18s4.31-8.04,5.69-18.09c1.16-8.44,1.72-16.28.56-25.47l-7.23,8.03c-.77.85-2.91.67-3.77.34-.93-.36-.99-3,.03-4.17l13.49-15.44c5.87,4.14,8.94,10.02,13.61,14.94,1.08,1.14,1.14,3.05.35,4.1-2.68,3.54-5.3-3.79-10.74-7.75l-.28,16.34Z"/>
  <path class="cls-1" d="M55.18,78.85c-.47,3.51,2.65,4.71,5.75,5.47l-.41,1.65c-19.29,3.21,6.26,12.9,13.31,13l1,2.62c1.53.23,3,.34,4.03,2.78l-4.19,2.43c-2.64,2.72-6.57,3.03-11.79.92-5.54-.73-8.82-2.92-9.83-6.55-.98-2.05-2.29-3.55-4.37-4.46-2.53-1.1-4.73-4.93-4.11-8.11,1.11-5.68,5.67-9.19,10.61-9.76Z"/>
  <path class="cls-1" d="M64.17,53.23l-1.46,5.82c-9.33,8.45,3.52,15.35,11.82,14.81l1.47,2.24c.06.89-.38,1.82-.96,2.15-.47.27-1.58.43-2.53.42l-11.02-.13c-.98.9-2.11-.06-2.53-1.29-.16-1.87-2.45-1.44-3.2-2.09-3.45-3.15-5.57-9.26-3.39-14.65,1.68-4.15,6.46-7.48,11.81-7.28Z"/>
  <path class="cls-1" d="M48.55,108c-.6,3.05,1.17,5.7,4.41,7.02l14.67,5.94c1.57.64,1.84,2.2,1.23,3.17-2.03,3.2-12.11-1.07-19.64-4.36-2.09-5.06-9-9.1-3.29-13.09.9-.63,2.41.86,2.63,1.33Z"/>
  <path class="cls-1" d="M48.69,96.72c3.76-2.07,7.23,1.22,4.37,4.46,4.09,2.5-.87,10.83-4.51,6.82-3.58,1.41-2.91,4.43,2.01,9.06l-1.35,2.71c2.48,2.21.97,4.31-4.51,6.3,4.11,3.33,17.6,1.86,22.33.42,1.54-.47,7.87-3.59,9.93-4.69,2.6-1.39,3.41-3.59.84-5.41-5.88-.9-9.25-8.03-3.12-9.57-.17-1.67-.12-3.41.16-5.22-4.2-1.09-2.81-4.67-.67-7.62,12.39-9.96-4.08-8.8-11.48-7.38l-1.74-2.28c-4.4-.23-11.36-1.15-5.75-5.47l.56-3.68c1.46-3.77,5.95-1.26,3.2,2.09l2.53,1.29,1.35-2.42c5.2,1.86,9.59,1.85,13.17-.02.11-.05,7.59-9,6.3-8.19-4.1,2.56-6.62,2.74-7.53-2.8.8-9.79,2.59-19.39,5.39-28.81-4.98,9.69-9.58,19.57-13.79,29.65-6.3,5.27-10.21-2.71-3.65-6.89-3.64-.93-1.9-5.19,1.46-5.82l11.93-23.28c5.88-11.48,14.02-22.98,26.44-29.95-8.19,19.18-17.67,36.69-19.62,56.34,4.52,3.09,8.41,6.48,7.88,11.85-.46,4.66-2.67,8.44-8.23,11.24,3.81,3.51,4.86,6.6,4.6,10.62-.23,3.62-3.76,6.28-7.54,8.41,1.04,2.38,1.26,6.75.48,9.22,3.41,2.39,6.94,5.12,7.11,9.25.21,4.97-2.11,7.77-5.92,11.07s6.02,18.94-5.13,30.16c-8.95,8.99-25.98,7.72-32.89-2.86-4.18-6.41-2.68-13.17-1.42-19.88-2.12-2.89-5.59-5.83-4.85-9.93.71-3.89,4.41-6.98,8-9.28-6.31-9.52,2.01-12.2,3.67-19.5Z"/>
</svg>