<?xml version="1.0" encoding="UTF-8"?>
<svg id="_圖層_1" data-name="圖層 1" xmlns="http://www.w3.org/2000/svg" viewBox="0 0 175.2 136.95">
  <defs>
    <style>
      .cls-1 {
        fill: #0b4282;
      }
    </style>
  </defs>
  <path class="cls-1" d="M101,131.94c-9.31,5.87-20.1,7.03-29.56,1.04-20.74-13.14-27.55,7.76-43.22-.41-16.67,8.49-30.42-.04-27.59-3.7,1.88-2.45,12.06,7.44,21.63,1.44,9.17-5.74,12.13,3.76,19.53-1.12,9.8-6.46,21.63-6.25,31.47-.11,7.91,4.94,17.21,4.37,24.97-.49,8.64-5.41,19.15-5.37,27.63.19,7.15,4.69,15.46,4.82,22.49.02,14.31-9.78,30.9,2.89,25.98,4.44-3.64,1.15-11.94-9.29-23.72-1-7.77,5.48-17.35,6.18-25.64.77-7.24-4.72-15.66-6.33-23.97-1.09Z"/>
  <path class="cls-1" d="M28.54,115.16C15.38,122.9.02,115.58,0,112.61c-.03-5.78,11.84,7.36,27.36-1.38,12.23-6.88,27.92-.06,25.39,3.82-1.84,2.83-11.36-7.46-24.21.1Z"/>
  <path class="cls-1" d="M150.68,114.64c-8.88,5.5-18.31,5.37-27.06.35-.83-.47-1.48-.79-1.81-1.24-.37-.5-.48-1.78.03-2.33,2.59-2.79,12.5,8.02,26.17.06,14.67-8.55,31.13,2.49,26.36,4.8-3.08,1.49-11.9-8.93-23.68-1.64Z"/>
  <circle class="cls-1" cx="25.05" cy="56.7" r="5.18"/>
  <circle class="cls-1" cx="149.03" cy="56.68" r="5.06"/>
  <circle class="cls-1" cx="8.87" cy="82.8" r="4.76"/>
  <circle class="cls-1" cx="165.35" cy="82.7" r="4.76"/>
  <circle class="cls-1" cx="31.94" cy="90.05" r="3.69"/>
  <circle class="cls-1" cx="140.84" cy="90.07" r="3.61"/>
  <path class="cls-1" d="M111.58,98.81c-15.35,12.34-37.48,12.31-51.08-2.01-11.63-12.25-12.9-30.78-5.77-46.08,8.42-18.05,18.8-34.28,31.69-50.72,12.93,16.93,23.58,32.91,32.16,50.73,7.9,16.41,5.91,34.42-7.01,48.08Z"/>
  <path class="cls-1" d="M118.03,69.92c.11,17.24-11.8,30.47-27.27,32.39s-31.08-8.28-34.54-24.28c-2.16-9.98-.45-18.81,4.25-27.3l10.41-18.8,15.91-23.11,22.6,35.44c4.91,7.69,8.57,15.92,8.63,25.65Z"/>
</svg>