<?xml version="1.0" encoding="UTF-8"?>
<svg id="_圖層_1" data-name="圖層 1" xmlns="http://www.w3.org/2000/svg" viewBox="0 0 128.8 195.7">
  <defs>
    <style>
      .cls-1 {
        fill: #0b4282;
      }
    </style>
  </defs>
  <path class="cls-1" d="M111.66,127.79c11.17,14.99,25.12,35.39,11.52,46.16-6.09,4.82-14.74,5.15-20.34,1.22-6.41-4.5-9.07-12.88-6.38-20.55l15.19-26.83Z"/>
  <path class="cls-1" d="M53.65,148.82c12.02,6.75,18.49-.54,21.43-.23.6.06,1.16,2.35.41,2.95-10.52,8.49-28.32,1.16-25-2.67.49-.57,2.06-.67,3.16-.05Z"/>
  <path class="cls-1" d="M47.17,96.54c-10.21-3.67-15.75.77-18.86.13-.72-.15-1.47-2.35-.27-3,8.58-4.71,21.81-2.35,22.05,1.31.1,1.54-1.36,2.12-2.92,1.55Z"/>
  <path class="cls-1" d="M97.63,111.39c-5.92,5.05-15.06,4.37-21.03.31l.16-2.51c.2-3.03,8.65,5.66,18-.5l2.02-.19c.39-.04,1.55,2.29.85,2.9Z"/>
  <path class="cls-1" d="M99.4,95.16c1.3,4.46-9.57-3.16-20.98,1.69-.93.39-1.99-.13-2.34-.55-3.88-4.66,21.28-8.15,23.33-1.14Z"/>
  <path class="cls-1" d="M48.7,109.08c4.03,2.51-7.39,9.57-18.42,3.43-1.22-.68-1.43-1.61-1.37-2.57.07-1.15,1.47-2.11,2.99-1.19,9.44,5.72,14.58-1.05,16.8.33Z"/>
  <path class="cls-1" d="M69.9,133.08c1.26,5.1-2.74,5.44-5.66,5.82-3.07.4-6.14-.57-8.52-2.92.47-5.48,5.35,1.93,14.18-2.9Z"/>
  <path class="cls-1" d="M13.24,131.14c1.26-1.96,1.21-3.64,4.15-4.19,3.39,20.28,14.87,37.27,33.03,46.84,20.17,10.63,33.4-7.32,36-7.25,1.27.03,1.98,1.34,2.29,2.96l4.47,23.61c.28,1.49-1.02,2.3-1.89,2.17s-1.85-.38-2.14-1.82l-4.21-20.99c-13.91,12.08-31.57,10.49-45.24-.53.22,22.52-8.3,26.33-7.49,22.43,1.77-8.52,4.43-16.48,3.6-25.56-10.34-8.46-16.62-19.79-20.8-32.65-2.33-1.6-6.12-2.9-7.86-5.41-6.72-9.74-10.82-24-2.57-31.8C-.46,71.59,8.25,45.14,32.46,30.18c-.02-8.48,2.19-16.5,8.22-22.08C48.93.47,60.58-1.27,71.42.82c14.04,2.71,23.18,14.4,21.93,29.22,24.06,14.04,34.56,42.32,27.95,69.19,5.05,3.48,6.93,10.39,2.74,14.87-3.08-3.37.06-8.26-4.95-11.13-1.15-.66-3.7-.03-3.85,1.57l-1.04,11.11c-.11,1.19-.74,1.61-1.13,1.9-5.47,4.13.34-14.41-3.48-23.73-5.74-13.99-30.6-18.75-43.61-37.47-5.63,6.67-11.62,12-19.37,16.07l-19.06,10.01c-17.39,9.13-10.85,26-14.4,26.11s-1.28-4.96-4.55-5.85c-6.63-1.82-6.44,17.27,4.64,28.45Z"/>
</svg>