<?xml version="1.0" encoding="UTF-8"?>
<svg id="_圖層_1" data-name="圖層 1" xmlns="http://www.w3.org/2000/svg" viewBox="0 0 184.42 136.99">
  <defs>
    <style>
      .cls-1 {
        fill: #0b4282;
      }
    </style>
  </defs>
  <path class="cls-1" d="M182.33,83.87l-69.54.52c-4.38.03-4.16,7.63-2.66,10.41,3.81,7.08,5.88,14.24,4.84,22.1-1.84,13.85-14.24,21.72-26.65,19.82-13.54-2.08-21.54-14.49-19.13-28.23,1.01-5.74,3.45-10.53,5.79-16.08,1.13-2.69-.13-8.28-3.78-8.28l-67.98-.12c-1.89,0-3.03-.44-3.19-1.94-.18-1.74.79-2.78,3.19-2.78l65.6.07c3.67,0,6.62.98,8.42,3.16,2.22,2.7,3.59,6.39,2.24,10.09l-5.44,14.94c-2.93,8.06.71,16.53,6.98,21.1,6.7,4.88,15.56,4.88,21.95.04s10.08-13.08,7.09-21.36l-5.37-14.89c-1.16-3.23.17-6.5,1.65-9.08s4.85-4.04,8.72-4.05l66.8-.03c1.73,0,2.27,1.02,2.49,1.82.23.85.08,2.77-2.01,2.78Z"/>
  <path class="cls-1" d="M102.84,108.31c2.18,6.85-.26,13.9-6.48,16.05s-14.1-.53-15.82-7.96c-2.25-9.73,6.95-20.62,8.99-37.21.18-1.47,1-2.35,1.79-2.54,1.5-.37,3,.54,3.22,2.41.82,7.03,3.24,13.36,5.38,20.08l2.91,9.16Z"/>
  <circle class="cls-1" cx="119.27" cy="28.99" r="13.94"/>
  <circle class="cls-1" cx="77.7" cy="52.12" r="12.08"/>
  <circle class="cls-1" cx="86.52" cy="11.06" r="11.06"/>
  <circle class="cls-1" cx="106.59" cy="58.94" r="6.25"/>
</svg>