<?xml version="1.0" encoding="UTF-8"?>
<svg id="_圖層_1" data-name="圖層 1" xmlns="http://www.w3.org/2000/svg" viewBox="0 0 156.88 138.6">
  <defs>
    <style>
      .cls-1 {
        fill: #0b4282;
      }
    </style>
  </defs>
  <path class="cls-1" d="M108.08,54.43c-1.15,2.66-2.73,4.02-4.74,4.08l.47,2.65c-16.96,18.03-34.44,35.6-52.45,52.72l-2.65.41c-.03,2.57-.55,4.5-3.53,3.63-4.06,1.35-8.46,5.94-11.61,8.8l-11.59,10.52c-1.3,1.18-2.26,1.82-3.72,1-.87-.49-1.56-2.87-.4-4l11.74-11.35c4.05-3.91,8.79-7.52,12-11.75-1.9-3.18-.03-4.46,2.91-2.45l1.05-3.85c17.96-16.52,35.66-33.39,51.45-52.12l4.09-1.4c-1.41-3.39-.31-4.72,3.2-3.53L139.21,5.11c1.31-1.6,2.42-2.66,4.15-2.45,1.54.19,2.89,2.93,1.53,4.6l-29.97,36.78c-2.84,3.48-6.22,6.05-6.84,10.39Z"/>
  <path class="cls-1" d="M104.3,47.77c-.89,1.09-2.41,2.42-3.2,3.53l-2.51.53-22.99-38.94-23.13,38.62c-9.05,16.28-16.91,35.98-7.18,53.69l-.78,3.47c-.76.54-2.34,1.7-2.91,2.45-14.81-19.34-6.16-45.07,6.5-65.91L75.58,0c11.09,16.48,19.71,31.87,28.72,47.77Z"/>
  <path class="cls-1" d="M108.08,54.43c10.37,19.51,14.17,43.8-.91,61.1-16.07,18.43-44.14,18.83-61.99,2.38.67-.22.75-1.8.89-2.39.22-.95,1.85-1.24,2.65-1.24l3.46-.1c37.16,27.22,74.81-15.22,50.52-52.21l.65-3.47c.74-.47.79-2.71,1.39-3.4.52-.6,1.35-1.67,3.35-.67Z"/>
  <path class="cls-1" d="M12.81,7.91c9.53,12.17,19.22,27.85,9.29,36.5-4.77,4.15-12.12,4.39-17.2.59-11.05-8.27-1.24-23.83,7.9-37.09Z"/>
  <path class="cls-1" d="M134.23,101.14c8.32,10.44,14.04,22.07,5.1,27.51-3.82,2.32-8.79,1.78-11.89-.93-3.31-2.9-4.2-8.37-1.8-12.35l8.59-14.23Z"/>
  <path class="cls-1" d="M147.36,51.79c7.77,10.26,13.81,21.24,5.6,27.21-3.59,2.61-8.03,2.21-11.13.09-8.07-5.5-2.94-18.02,5.53-27.3Z"/>
  <path class="cls-1" d="M103.5,91.42c-1.65,17.41-20.16,25.55-19.94,19.76.15-3.97,15-5.03,15.97-21.84.08-1.34,1.63-1.28,2.24-1.19,1.36.21,1.91,1.4,1.73,3.26Z"/>
</svg>