<?xml version="1.0" encoding="UTF-8"?>
<svg id="_圖層_1" data-name="圖層 1" xmlns="http://www.w3.org/2000/svg" viewBox="0 0 182.13 163.02">
  <defs>
    <style>
      .cls-1 {
        fill: #0b4282;
      }
    </style>
  </defs>
  <path class="cls-1" d="M95.71,145.48c-6.37,3.82-13.11,2.33-18.11-1.33s-7.7-10.72-6.11-17.53l6.88-29.54c4.36-30.07,15.98-57.98,34.53-81.84L126.98.11c1.11-.2,1.94-.14,2.26.27s.27,2.33-.23,2.95c-18.57,23.27-28.93,50.8-31.23,80.46-1.07,13.75.13,26.42,5.3,39.22,3.22,7.96.35,17.83-7.38,22.47Z"/>
  <path class="cls-1" d="M180.97,105.02l-62.74.32c-3.9.02-3.82,5.89-2.59,8.45,6.13,12.74,5.38,27.84-4.16,38.63-12.4,14.02-35.21,14.23-47.51.06-9.72-11.2-9.49-26.58-3.85-39.65,1.09-2.53.24-7.52-2.84-7.53l-54.61-.16c-1.78,0-2.25-.64-2.54-1.52-.52-1.58.45-3.14,2.52-3.13l54.58.25c3.33.02,6.04,2.51,6.97,4.52,4.33,9.41-8.92,20.63-.66,37.61,4.69,9.64,13.68,15.33,23.59,15.5s19.3-5.2,24.44-14.66c9.43-17.33-4.06-28.81-.63-37.54.92-2.33,3.61-5.46,7.27-5.48l60.66-.21c1.2,0,2.56.69,2.98,1.17.55.62.18,3.36-.91,3.37Z"/>
  <path class="cls-1" d="M47.9,49.82c-6.55,6.6-4.07,16.39-7.97,16.23-3.32-.14-.21-19.79-19.5-20.91-1.31-.08-2.23-1.35-2.15-2.3.09-1,1.08-1.71,2.44-1.85,17.88-1.87,15.93-16.84,18.35-20.05.49-.65,2.06-.51,2.53,0,2.09,2.25.34,18.48,17.21,19.88,1.13.09,2.75,1.1,2.67,2.02-.23,2.96-9.13,2.49-13.59,6.98Z"/>
  <path class="cls-1" d="M147.53,81.25c-5.85,2.9-.52-16.5-17.59-17.94-1.58-.13-2.86-1.1-2.84-2.45.01-.92.84-2.08,2.49-2.17,15.24-.78,13.53-15.91,15.57-17.96.43-.43,1.73-.58,2.25-.25,3.08,1.95,0,17.17,15.29,18.19l2.22.73c.79.26,1.21,2.66.22,2.99-11.81,3.95-13.41,3-17.61,18.87Z"/>
</svg>