<svg width="99" height="104" viewBox="0 0 99 104" fill="none" xmlns="http://www.w3.org/2000/svg">
<path d="M95.9062 52.4062H86.8125V34.2188H95.9062C96.7102 34.2188 97.4812 33.8994 98.0497 33.3309C98.6181 32.7624 98.9375 31.9914 98.9375 31.1875C98.9375 30.3836 98.6181 29.6126 98.0497 29.0441C97.4812 28.4756 96.7102 28.1562 95.9062 28.1562H85.9903C85.459 27.2361 84.6953 26.4717 83.7756 25.9397C82.8559 25.4077 81.8125 25.1268 80.75 25.125H74.6875C73.625 25.1268 72.5816 25.4077 71.6619 25.9397C70.7422 26.4717 69.9785 27.2361 69.4472 28.1562H62.5625C52.1147 28.1673 42.098 32.3225 34.7103 39.7103C27.3225 47.098 23.1673 57.1147 23.1562 67.5625V74.4434C22.2355 74.975 21.4708 75.7393 20.9388 76.6598C20.4067 77.5802 20.1261 78.6244 20.125 79.6875V85.75C20.1261 86.8131 20.4067 87.8573 20.9388 88.7777C21.4708 89.6982 22.2355 90.4625 23.1562 90.9941V100.906C23.1562 101.71 23.4756 102.481 24.0441 103.05C24.6126 103.618 25.3836 103.938 26.1875 103.938C26.9914 103.938 27.7624 103.618 28.3309 103.05C28.8994 102.481 29.2188 101.71 29.2188 100.906V91.8125H47.4062V100.906C47.4062 101.71 47.7256 102.481 48.2941 103.05C48.8626 103.618 49.6336 103.938 50.4375 103.938C51.2414 103.938 52.0124 103.618 52.5809 103.05C53.1494 102.481 53.4688 101.71 53.4688 100.906V90.9941C54.3895 90.4625 55.1542 89.6982 55.6862 88.7777C56.2183 87.8573 56.4989 86.8131 56.5 85.75V79.6875C56.4989 78.6244 56.2183 77.5802 55.6862 76.6598C55.1542 75.7393 54.3895 74.975 53.4688 74.4434V67.5625C53.4688 65.1507 54.4268 62.8377 56.1322 61.1322C57.8377 59.4268 60.1507 58.4688 62.5625 58.4688H69.4472C69.9785 59.3889 70.7422 60.1533 71.6619 60.6853C72.5816 61.2173 73.625 61.4982 74.6875 61.5H80.75C81.8125 61.4982 82.8559 61.2173 83.7756 60.6853C84.6953 60.1533 85.459 59.3889 85.9903 58.4688H95.9062C96.7102 58.4688 97.4812 58.1494 98.0497 57.5809C98.6181 57.0124 98.9375 56.2414 98.9375 55.4375C98.9375 54.6336 98.6181 53.8626 98.0497 53.2941C97.4812 52.7256 96.7102 52.4062 95.9062 52.4062ZM50.4375 79.6875V85.75H26.1875V79.6875H50.4375ZM47.4062 67.5625V73.625H29.2188V67.5625C29.2288 58.7223 32.745 50.247 38.996 43.996C45.247 37.745 53.7223 34.2288 62.5625 34.2188H68.625V52.4062H62.5625C58.5428 52.4063 54.6878 54.0031 51.8454 56.8454C49.0031 59.6878 47.4063 63.5428 47.4062 67.5625ZM74.6875 55.4375V31.1875H80.75V55.4375H74.6875Z" fill="#0B4282"/>
<path d="M31.7295 1.54297C32.502 -0.514267 35.498 -0.514267 36.2705 1.54297L39.7754 10.8945L49.4102 14.2959C51.53 15.0456 51.53 17.9544 49.4102 18.7041L39.7754 22.1055L36.2705 31.457C35.498 33.5143 32.502 33.5143 31.7295 31.457L28.2246 22.1055L18.5898 18.7041C16.47 17.9544 16.47 15.0456 18.5898 14.2959L28.2246 10.8945L31.7295 1.54297Z" fill="#0B4282"/>
<path d="M31.7295 1.54297C32.502 -0.514267 35.498 -0.514267 36.2705 1.54297L39.7754 10.8945L49.4102 14.2959C51.53 15.0456 51.53 17.9544 49.4102 18.7041L39.7754 22.1055L36.2705 31.457C35.498 33.5143 32.502 33.5143 31.7295 31.457L28.2246 22.1055L18.5898 18.7041C16.47 17.9544 16.47 15.0456 18.5898 14.2959L28.2246 10.8945L31.7295 1.54297Z" stroke="white"/>
<path d="M9.96387 28.0762C10.4863 26.6419 12.5137 26.6419 13.0361 28.0762L15.4072 34.5928L21.9238 36.9639C23.3581 37.4863 23.3581 39.5137 21.9238 40.0361L15.4072 42.4072L13.0361 48.9238C12.5137 50.3581 10.4863 50.3581 9.96387 48.9238L7.59277 42.4072L1.07617 40.0361C-0.358094 39.5137 -0.358094 37.4863 1.07617 36.9639L7.59277 34.5928L9.96387 28.0762Z" fill="#0B4282"/>
<path d="M9.96387 28.0762C10.4863 26.6419 12.5137 26.6419 13.0361 28.0762L15.4072 34.5928L21.9238 36.9639C23.3581 37.4863 23.3581 39.5137 21.9238 40.0361L15.4072 42.4072L13.0361 48.9238C12.5137 50.3581 10.4863 50.3581 9.96387 48.9238L7.59277 42.4072L1.07617 40.0361C-0.358094 39.5137 -0.358094 37.4863 1.07617 36.9639L7.59277 34.5928L9.96387 28.0762Z" stroke="white"/>
</svg>
