<svg width="229" height="197" viewBox="0 0 229 197" fill="none" xmlns="http://www.w3.org/2000/svg">
<rect x="81.5" y="5" width="66" height="185" rx="5" stroke="#1F2120" stroke-width="10"/>
<rect x="33.5" y="51" width="48" height="139" rx="5" stroke="#1F2120" stroke-width="10"/>
<rect x="147.5" y="51" width="48" height="139" rx="5" stroke="#1F2120" stroke-width="10"/>
<rect x="103.5" y="151" width="22" height="39" rx="5" stroke="#1F2120" stroke-width="10"/>
<path d="M5 191.5H224" stroke="#1F2120" stroke-width="10" stroke-linecap="round"/>
<path d="M102.5 35L102.5 40" stroke="#1F2120" stroke-width="10" stroke-linecap="round"/>
<path d="M124.5 35L124.5 40" stroke="#1F2120" stroke-width="10" stroke-linecap="round"/>
<path d="M102.5 70L102.5 75" stroke="#1F2120" stroke-width="10" stroke-linecap="round"/>
<path d="M124.5 70L124.5 75" stroke="#1F2120" stroke-width="10" stroke-linecap="round"/>
<path d="M62.5 70.0105C62.5 67.2491 60.2614 65.0058 57.5 65C54.7386 64.9942 52.5 67.228 52.5 69.9895L57.5 70L62.5 70.0105ZM52.5 74.9895C52.5 77.7509 54.7386 79.9942 57.5 80C60.2614 80.0058 62.5 77.772 62.5 75.0105L57.5 75L52.5 74.9895ZM57.5 70L52.5 69.9895L52.5 74.9895L57.5 75L62.5 75.0105L62.5 70.0105L57.5 70Z" fill="#1F2120"/>
<path d="M176.5 70.0105C176.5 67.2491 174.261 65.0058 171.5 65C168.739 64.9942 166.5 67.228 166.5 69.9895L171.5 70L176.5 70.0105ZM166.5 74.9895C166.5 77.7509 168.739 79.9942 171.5 80C174.261 80.0058 176.5 77.772 176.5 75.0105L171.5 75L166.5 74.9895ZM171.5 70L166.5 69.9895L166.5 74.9895L171.5 75L176.5 75.0105L176.5 70.0105L171.5 70Z" fill="#1F2120"/>
<path d="M176.5 108.011C176.5 105.249 174.261 103.006 171.5 103C168.739 102.994 166.5 105.228 166.5 107.989L171.5 108L176.5 108.011ZM166.5 112.989C166.5 115.751 168.739 117.994 171.5 118C174.261 118.006 176.5 115.772 176.5 113.011L171.5 113L166.5 112.989ZM171.5 108L166.5 107.989L166.5 112.989L171.5 113L176.5 113.011L176.5 108.011L171.5 108Z" fill="#1F2120"/>
<path d="M176.5 140.011C176.5 137.249 174.261 135.006 171.5 135C168.739 134.994 166.5 137.228 166.5 139.989L171.5 140L176.5 140.011ZM166.5 144.989C166.5 147.751 168.739 149.994 171.5 150C174.261 150.006 176.5 147.772 176.5 145.011L171.5 145L166.5 144.989ZM171.5 140L166.5 139.989L166.5 144.989L171.5 145L176.5 145.011L176.5 140.011L171.5 140Z" fill="#1F2120"/>
<path d="M62.5 105.011C62.5 102.249 60.2614 100.006 57.5 100C54.7386 99.9942 52.5 102.228 52.5 104.989L57.5 105L62.5 105.011ZM52.5 109.989C52.5 112.751 54.7386 114.994 57.5 115C60.2614 115.006 62.5 112.772 62.5 110.011L57.5 110L52.5 109.989ZM57.5 105L52.5 104.989L52.5 109.989L57.5 110L62.5 110.011L62.5 105.011L57.5 105Z" fill="#1F2120"/>
<path d="M62.5 140.011C62.5 137.249 60.2614 135.006 57.5 135C54.7386 134.994 52.5 137.228 52.5 139.989L57.5 140L62.5 140.011ZM52.5 144.989C52.5 147.751 54.7386 149.994 57.5 150C60.2614 150.006 62.5 147.772 62.5 145.011L57.5 145L52.5 144.989ZM57.5 140L52.5 139.989L52.5 144.989L57.5 145L62.5 145.011L62.5 140.011L57.5 140Z" fill="#1F2120"/>
<path d="M102.5 105L102.5 110" stroke="#1F2120" stroke-width="10" stroke-linecap="round"/>
<path d="M124.5 105L124.5 110" stroke="#1F2120" stroke-width="10" stroke-linecap="round"/>
</svg>
