<svg width="171" height="193" viewBox="0 0 171 193" fill="none" xmlns="http://www.w3.org/2000/svg">
<path d="M5 79.5153C5 38.3632 40.8451 5 85.0625 5C129.28 5 165.125 38.3632 165.125 79.5153C165.125 120.347 139.574 167.984 99.7025 185.026C95.0713 186.989 90.0926 188.001 85.0625 188.001C80.0324 188.001 75.0537 186.989 70.4225 185.026C30.5514 167.984 5 120.336 5 79.5153Z" stroke="#1F2120" stroke-width="10"/>
<path d="M107.937 85.0635C107.937 91.1303 105.527 96.9486 101.238 101.239C96.9477 105.528 91.1293 107.938 85.0625 107.938C78.9957 107.938 73.1773 105.528 68.8874 101.239C64.5975 96.9486 62.1875 91.1303 62.1875 85.0635C62.1875 78.9966 64.5975 73.1783 68.8874 68.8884C73.1773 64.5985 78.9957 62.1885 85.0625 62.1885C91.1293 62.1885 96.9477 64.5985 101.238 68.8884C105.527 73.1783 107.937 78.9966 107.937 85.0635Z" stroke="#1F2120" stroke-width="10"/>
</svg>
