<svg width="167" height="206" viewBox="0 0 167 206" fill="none" xmlns="http://www.w3.org/2000/svg">
<path d="M54 112.8H112.8M54 152H83.4M5 24.6V181.4C5 186.598 7.06499 191.584 10.7407 195.259C14.4164 198.935 19.4018 201 24.6 201H142.2C147.398 201 152.384 198.935 156.059 195.259C159.735 191.584 161.8 186.598 161.8 181.4V67.1516C161.8 64.5405 161.278 61.9558 160.265 59.5492C159.251 57.1426 157.768 54.9628 155.9 53.1376L112.388 10.586C108.727 7.00565 103.809 5.00064 98.688 5H24.6C19.4018 5 14.4164 7.06499 10.7407 10.7407C7.06499 14.4164 5 19.4018 5 24.6Z" stroke="#1F2120" stroke-width="10" stroke-linecap="round" stroke-linejoin="round"/>
<path d="M103 5V44.2C103 49.3982 105.065 54.3836 108.741 58.0593C112.416 61.735 117.402 63.8 122.6 63.8H161.8" stroke="#1F2120" stroke-width="10" stroke-linejoin="round"/>
</svg>
