<svg width="218" height="196" viewBox="0 0 218 196" fill="none" xmlns="http://www.w3.org/2000/svg">
<path d="M108.992 5C112.22 5.00522 114.814 6.08037 117.061 8.31445C119.294 10.5354 120.36 13.104 120.35 16.3174V16.333C120.35 18.2406 119.913 19.9646 119.041 21.583C118.094 23.3391 116.94 24.6525 115.599 25.627L111.54 28.5762L114.502 32.625L148.564 79.1748L150.952 82.4375L154.643 80.7861L188.705 65.542L193.09 63.5791L191.304 59.1191C191.034 58.4445 190.779 57.6595 190.55 56.7539C190.391 56.1256 190.295 55.3732 190.3 54.4727V54.4443C190.3 51.2218 191.373 48.6399 193.607 46.4072C195.842 44.1746 198.424 43.1062 201.642 43.1113C204.869 43.1165 207.464 44.1914 209.711 46.4258C211.944 48.6467 213.01 51.2154 213 54.4287C212.99 57.6678 211.912 60.26 209.69 62.4941C207.489 64.7087 204.914 65.7824 201.658 65.7773H201.65C201.643 65.7769 201.627 65.7759 201.604 65.7734C201.556 65.7683 201.481 65.7583 201.378 65.7383C200.71 65.6092 200.009 65.5208 199.295 65.5068L194.938 65.4209L194.259 69.7266L183.37 138.8C182.662 142.902 180.769 146.207 177.583 148.896C174.388 151.594 170.847 152.889 166.77 152.889H51.2305C47.1617 152.889 43.6237 151.595 40.4277 148.896C37.3402 146.29 35.4629 143.105 34.6992 139.176L34.6289 138.793L23.7412 69.7266L23.0762 65.5059H18.8027C18.018 65.5059 17.2595 65.6057 16.5566 65.7529C16.4819 65.7686 16.4345 65.7748 16.4121 65.7773H16.3496C13.1158 65.7773 10.5331 64.7056 8.30762 62.4824C6.08191 60.259 5.0052 57.675 5 54.4365C4.99484 51.211 6.06595 48.6421 8.2959 46.4297C10.5456 44.1977 13.1419 43.1217 16.3662 43.1113C19.5651 43.1011 22.1493 44.1663 24.4033 46.418C26.6566 48.6691 27.7155 51.2416 27.7002 54.4199V54.4443C27.7002 55.3531 27.6014 56.1152 27.4395 56.7539C27.2072 57.6697 26.9517 58.4656 26.6826 59.1514L24.9404 63.5928L29.2949 65.542L63.3574 80.7861L67.0479 82.4375L69.4355 79.1748L103.497 32.625L106.46 28.5762L102.401 25.627C101.06 24.6525 99.9056 23.3391 98.959 21.583C98.0867 19.9646 97.6504 18.2406 97.6504 16.333C97.6505 13.1104 98.723 10.5286 100.958 8.2959C103.193 6.0632 105.774 4.99485 108.992 5Z" stroke="#1F2120" stroke-width="10"/>
<mask id="path-2-inside-1_56_82" fill="white">
<rect x="38" y="165.667" width="142" height="30" rx="5"/>
</mask>
<rect x="38" y="165.667" width="142" height="30" rx="5" stroke="#1F2120" stroke-width="20" mask="url(#path-2-inside-1_56_82)"/>
</svg>
