<svg width="207" height="206" viewBox="0 0 207 206" fill="none" xmlns="http://www.w3.org/2000/svg">
<path d="M12.6855 114.819C15.2866 114.181 18.0359 114.596 20.3298 115.972C22.6237 117.349 24.2746 119.575 24.9201 122.162C26.8765 130.088 30.0336 137.671 34.283 144.652C35.5527 146.929 35.8853 149.607 35.2109 152.123C34.5365 154.639 32.9077 156.797 30.667 158.142C28.4263 159.488 25.7484 159.917 23.1963 159.339C20.6442 158.761 18.4169 157.221 16.9827 155.043C11.6809 146.331 7.7398 136.869 5.29418 126.98C4.65268 124.392 5.06968 121.657 6.4536 119.375C7.83752 117.093 10.0752 115.451 12.6754 114.809M47.7107 175.22C48.3964 174.088 49.2994 173.102 50.3682 172.318C51.437 171.534 52.6507 170.967 53.9399 170.649C55.2291 170.332 56.5685 170.27 57.8818 170.467C59.195 170.665 60.4562 171.118 61.5934 171.8C68.6075 176.03 76.2275 179.174 84.192 181.124C85.5071 181.416 86.7503 181.966 87.8486 182.743C88.9469 183.519 89.8781 184.506 90.5875 185.646C91.2969 186.785 91.7702 188.054 91.9796 189.379C92.189 190.703 92.1302 192.055 91.8067 193.356C91.4833 194.657 90.9016 195.881 90.096 196.956C89.2904 198.03 88.277 198.933 87.1155 199.613C85.9539 200.292 84.6676 200.733 83.3321 200.911C81.9966 201.089 80.6388 200.999 79.3386 200.648C69.4017 198.217 59.8934 194.3 51.1384 189.03C50.001 188.348 49.0097 187.45 48.2213 186.387C47.4329 185.323 46.8628 184.116 46.5436 182.834C46.2243 181.551 46.1622 180.219 46.3607 178.912C46.5593 177.606 47.0247 176.351 47.7107 175.22ZM145.395 171.8C147.692 170.422 150.445 170.008 153.049 170.65C155.652 171.291 157.893 172.935 159.278 175.22C160.663 177.505 161.079 180.243 160.434 182.833C159.789 185.423 158.137 187.652 155.84 189.03C147.082 194.301 137.57 198.218 127.63 200.648C125.026 201.287 122.273 200.87 119.978 199.491C117.683 198.111 116.032 195.88 115.39 193.29C114.748 190.7 115.166 187.962 116.553 185.678C117.94 183.395 120.183 181.753 122.786 181.114C130.754 179.168 138.377 176.027 145.395 171.8ZM182.038 122.152C182.682 119.56 184.334 117.329 186.631 115.949C188.929 114.569 191.683 114.154 194.288 114.794C196.893 115.434 199.136 117.078 200.523 119.363C201.91 121.648 202.328 124.388 201.684 126.98C200.471 131.855 198.873 136.673 196.892 141.434C194.903 146.201 192.608 150.734 190.006 155.033C188.619 157.318 186.377 158.961 183.773 159.601C181.168 160.242 178.415 159.827 176.118 158.448C173.821 157.068 172.169 154.838 171.525 152.247C170.882 149.656 171.299 146.917 172.685 144.632C176.934 137.654 180.081 130.074 182.038 122.152ZM16.9929 50.8775C17.6587 49.7065 18.5538 48.6804 19.6254 47.8597C20.6969 47.039 21.9231 46.4404 23.2313 46.0995C24.5395 45.7586 25.9032 45.6822 27.2416 45.8748C28.58 46.0674 29.866 46.5252 31.0234 47.221C32.1808 47.9168 33.1862 48.8365 33.9799 49.9257C34.7737 51.0149 35.3398 52.2514 35.6447 53.5621C35.9495 54.8727 35.987 56.2309 35.7549 57.5562C35.5227 58.8816 35.0257 60.1471 34.2931 61.2779C30.0482 68.2566 26.8945 75.8367 24.9403 83.7585C24.2967 86.3488 22.645 88.5787 20.3487 89.9576C18.0524 91.3365 15.2995 91.7515 12.6956 91.1113C10.0917 90.471 7.85012 88.828 6.46399 86.5437C5.07785 84.2593 4.6607 81.5208 5.3043 78.9305C7.75088 69.0449 11.692 59.5862 16.9929 50.8775ZM176.143 47.4576C177.281 46.7751 178.542 46.3222 179.855 46.1247C181.168 45.9272 182.508 45.9891 183.797 46.3066C185.086 46.6242 186.3 47.1913 187.369 47.9756C188.437 48.7599 189.34 49.746 190.026 50.8775C195.323 59.5868 199.261 69.0455 201.705 78.9305C202.348 81.5208 201.931 84.2593 200.545 86.5437C199.159 88.828 196.917 90.471 194.313 91.1113C191.709 91.7515 188.956 91.3365 186.66 89.9576C184.364 88.5787 182.712 86.3488 182.069 83.7585C180.111 75.8362 176.954 68.256 172.706 61.2779C172.019 60.1467 171.564 58.892 171.366 57.5856C171.167 56.2793 171.229 54.9468 171.549 53.6644C171.868 52.3819 172.438 51.1746 173.226 50.1113C174.015 49.0481 175.006 48.1397 176.143 47.4576ZM115.415 12.6353C116.061 10.0488 117.712 7.82272 120.006 6.44602C122.3 5.06932 125.049 4.6545 127.65 5.29265C137.587 7.72331 147.095 11.6404 155.85 16.9101C158.062 18.3279 159.631 20.5476 160.224 23.0977C160.817 25.6477 160.388 28.3274 159.027 30.5676C157.666 32.8077 155.481 34.432 152.936 35.0953C150.39 35.7586 147.685 35.4088 145.395 34.1201C138.38 29.8973 130.76 26.7601 122.797 24.8161C120.194 24.1742 117.955 22.5303 116.571 20.2461C115.186 17.9619 114.771 15.2243 115.415 12.6353ZM79.3386 5.29265C81.8984 4.76636 84.5635 5.24662 86.7751 6.6327C88.9866 8.01878 90.5726 10.203 91.2004 12.7271C91.8282 15.2512 91.449 17.919 90.1423 20.1711C88.8357 22.4231 86.7031 24.0842 84.192 24.806C76.228 26.7532 68.6081 29.8938 61.5934 34.1201C59.3032 35.4088 56.5982 35.7586 54.0529 35.0953C51.5076 34.432 49.3225 32.8077 47.9616 30.5676C46.6007 28.3274 46.1713 25.6477 46.7644 23.0977C47.3576 20.5476 48.9267 18.3279 51.1384 16.9101C59.8928 11.6369 69.4012 7.72646 79.3386 5.29265Z" stroke="#1F2120" stroke-width="10"/>
</svg>
